<svg width="430" height="884" viewBox="0 0 430 884" fill="none" xmlns="http://www.w3.org/2000/svg">
<g filter="url(#filter0_d_0_108)">
<g clip-path="url(#clip0_0_108)">
<rect x="20" y="16" width="390" height="844" rx="20" fill="white"/>
<rect x="175" y="326" width="80" height="80" rx="17.7778" fill="#2F4FCD"/>
<rect x="223.876" y="336.043" width="22.4842" height="37.2909" transform="rotate(53.526 223.876 336.043)" fill="url(#paint0_linear_0_108)"/>
<rect x="222.71" y="355.745" width="22.4842" height="37.2909" transform="rotate(53.526 222.71 355.745)" fill="url(#paint1_linear_0_108)"/>
<rect opacity="0.1" x="479.945" y="48" width="177.663" height="294.661" transform="rotate(53.526 479.945 48)" fill="url(#paint2_linear_0_108)"/>
<rect opacity="0.1" x="441.945" y="223" width="177.663" height="294.661" transform="rotate(53.526 441.945 223)" fill="url(#paint3_linear_0_108)"/>
<path d="M133.662 430.453C133.595 429.833 133.316 429.35 132.824 429.004C132.336 428.659 131.702 428.486 130.92 428.486C130.371 428.486 129.9 428.569 129.507 428.734C129.114 428.9 128.813 429.125 128.605 429.409C128.397 429.693 128.29 430.018 128.285 430.382C128.285 430.685 128.354 430.948 128.491 431.17C128.633 431.393 128.825 431.582 129.067 431.739C129.308 431.89 129.576 432.018 129.869 432.122C130.163 432.226 130.459 432.314 130.757 432.385L132.121 432.726C132.67 432.854 133.198 433.027 133.704 433.244C134.216 433.462 134.673 433.737 135.075 434.068C135.482 434.4 135.804 434.8 136.041 435.268C136.278 435.737 136.396 436.286 136.396 436.916C136.396 437.768 136.178 438.519 135.743 439.168C135.307 439.812 134.677 440.316 133.854 440.68C133.034 441.04 132.042 441.22 130.878 441.22C129.746 441.22 128.764 441.045 127.93 440.695C127.102 440.344 126.453 439.833 125.984 439.161C125.52 438.488 125.269 437.669 125.231 436.703H127.824C127.862 437.21 128.018 437.631 128.292 437.967C128.567 438.304 128.925 438.554 129.365 438.72C129.81 438.886 130.307 438.969 130.856 438.969C131.429 438.969 131.931 438.884 132.362 438.713C132.798 438.538 133.139 438.296 133.385 437.989C133.631 437.676 133.756 437.312 133.761 436.895C133.756 436.516 133.645 436.204 133.427 435.957C133.21 435.706 132.904 435.498 132.511 435.332C132.123 435.162 131.668 435.01 131.148 434.878L129.493 434.452C128.295 434.144 127.348 433.678 126.652 433.053C125.961 432.423 125.615 431.587 125.615 430.545C125.615 429.688 125.847 428.938 126.311 428.294C126.78 427.65 127.416 427.151 128.221 426.795C129.026 426.436 129.938 426.256 130.956 426.256C131.988 426.256 132.892 426.436 133.669 426.795C134.45 427.151 135.063 427.645 135.508 428.28C135.953 428.91 136.183 429.634 136.197 430.453H133.662ZM138.632 441V430.091H141.089V431.945H141.217C141.444 431.32 141.82 430.832 142.346 430.482C142.872 430.126 143.499 429.949 144.228 429.949C144.967 429.949 145.589 430.129 146.096 430.489C146.607 430.844 146.967 431.329 147.176 431.945H147.289C147.531 431.339 147.938 430.856 148.511 430.496C149.088 430.131 149.773 429.949 150.563 429.949C151.567 429.949 152.386 430.266 153.021 430.901C153.655 431.535 153.972 432.461 153.972 433.678V441H151.394V434.075C151.394 433.398 151.214 432.903 150.855 432.591C150.495 432.274 150.054 432.115 149.534 432.115C148.913 432.115 148.428 432.309 148.078 432.697C147.732 433.081 147.559 433.58 147.559 434.196V441H145.038V433.969C145.038 433.405 144.867 432.955 144.526 432.619C144.19 432.283 143.75 432.115 143.205 432.115C142.836 432.115 142.5 432.21 142.197 432.399C141.894 432.584 141.652 432.847 141.472 433.188C141.293 433.524 141.203 433.917 141.203 434.366V441H138.632ZM159.72 441.22C159.029 441.22 158.406 441.097 157.852 440.851C157.303 440.6 156.867 440.231 156.545 439.743C156.228 439.255 156.069 438.654 156.069 437.939C156.069 437.323 156.183 436.814 156.41 436.412C156.638 436.009 156.948 435.688 157.341 435.446C157.734 435.205 158.176 435.022 158.669 434.899C159.166 434.771 159.68 434.679 160.21 434.622C160.849 434.556 161.368 434.497 161.765 434.445C162.163 434.388 162.452 434.303 162.632 434.189C162.817 434.071 162.909 433.888 162.909 433.642V433.599C162.909 433.064 162.75 432.65 162.433 432.357C162.116 432.063 161.659 431.916 161.062 431.916C160.433 431.916 159.933 432.054 159.564 432.328C159.199 432.603 158.953 432.927 158.825 433.301L156.425 432.96C156.614 432.297 156.926 431.743 157.362 431.298C157.798 430.848 158.33 430.512 158.96 430.29C159.59 430.062 160.286 429.949 161.048 429.949C161.574 429.949 162.097 430.01 162.618 430.134C163.139 430.257 163.614 430.46 164.045 430.744C164.476 431.024 164.822 431.405 165.082 431.888C165.347 432.371 165.48 432.974 165.48 433.699V441H163.008V439.501H162.923C162.767 439.804 162.547 440.089 162.263 440.354C161.983 440.614 161.631 440.825 161.204 440.986C160.783 441.142 160.288 441.22 159.72 441.22ZM160.388 439.331C160.904 439.331 161.351 439.229 161.73 439.026C162.109 438.817 162.4 438.543 162.604 438.202C162.812 437.861 162.916 437.489 162.916 437.087V435.801C162.836 435.867 162.698 435.929 162.504 435.986C162.315 436.043 162.102 436.092 161.865 436.135C161.628 436.178 161.394 436.215 161.162 436.249C160.93 436.282 160.729 436.31 160.558 436.334C160.175 436.386 159.831 436.471 159.528 436.589C159.225 436.708 158.986 436.874 158.811 437.087C158.636 437.295 158.548 437.565 158.548 437.896C158.548 438.37 158.721 438.727 159.067 438.969C159.412 439.21 159.853 439.331 160.388 439.331ZM168.065 441V430.091H170.558V431.909H170.672C170.871 431.279 171.211 430.794 171.694 430.453C172.182 430.107 172.738 429.935 173.363 429.935C173.506 429.935 173.664 429.942 173.839 429.956C174.019 429.965 174.168 429.982 174.287 430.006V432.371C174.178 432.333 174.005 432.3 173.768 432.271C173.536 432.238 173.311 432.222 173.094 432.222C172.625 432.222 172.203 432.323 171.829 432.527C171.46 432.726 171.169 433.003 170.956 433.358C170.743 433.713 170.636 434.123 170.636 434.587V441H168.065ZM182.028 430.091V432.08H175.757V430.091H182.028ZM177.305 427.477H179.876V437.719C179.876 438.064 179.928 438.33 180.032 438.514C180.141 438.694 180.283 438.817 180.459 438.884C180.634 438.95 180.828 438.983 181.041 438.983C181.202 438.983 181.349 438.971 181.481 438.947C181.619 438.924 181.723 438.902 181.794 438.884L182.227 440.893C182.09 440.941 181.893 440.993 181.638 441.05C181.387 441.107 181.079 441.14 180.714 441.149C180.07 441.168 179.49 441.071 178.974 440.858C178.458 440.64 178.049 440.304 177.746 439.849C177.447 439.395 177.3 438.827 177.305 438.145V427.477ZM187.161 426.455V441H184.526V426.455H187.161ZM189.901 441V430.091H192.358V431.945H192.486C192.714 431.32 193.09 430.832 193.616 430.482C194.141 430.126 194.769 429.949 195.498 429.949C196.236 429.949 196.859 430.129 197.366 430.489C197.877 430.844 198.237 431.329 198.445 431.945H198.559C198.8 431.339 199.207 430.856 199.78 430.496C200.358 430.131 201.042 429.949 201.833 429.949C202.837 429.949 203.656 430.266 204.29 430.901C204.925 431.535 205.242 432.461 205.242 433.678V441H202.664V434.075C202.664 433.398 202.484 432.903 202.124 432.591C201.764 432.274 201.324 432.115 200.803 432.115C200.183 432.115 199.698 432.309 199.347 432.697C199.001 433.081 198.829 433.58 198.829 434.196V441H196.307V433.969C196.307 433.405 196.137 432.955 195.796 432.619C195.46 432.283 195.019 432.115 194.475 432.115C194.106 432.115 193.769 432.21 193.466 432.399C193.163 432.584 192.922 432.847 192.742 433.188C192.562 433.524 192.472 433.917 192.472 434.366V441H189.901ZM210.99 441.22C210.298 441.22 209.676 441.097 209.122 440.851C208.572 440.6 208.137 440.231 207.815 439.743C207.498 439.255 207.339 438.654 207.339 437.939C207.339 437.323 207.453 436.814 207.68 436.412C207.907 436.009 208.217 435.688 208.61 435.446C209.003 435.205 209.446 435.022 209.938 434.899C210.436 434.771 210.949 434.679 211.48 434.622C212.119 434.556 212.637 434.497 213.035 434.445C213.433 434.388 213.722 434.303 213.901 434.189C214.086 434.071 214.178 433.888 214.178 433.642V433.599C214.178 433.064 214.02 432.65 213.703 432.357C213.385 432.063 212.928 431.916 212.332 431.916C211.702 431.916 211.203 432.054 210.833 432.328C210.469 432.603 210.222 432.927 210.095 433.301L207.694 432.96C207.883 432.297 208.196 431.743 208.632 431.298C209.067 430.848 209.6 430.512 210.23 430.29C210.859 430.062 211.555 429.949 212.318 429.949C212.843 429.949 213.366 430.01 213.887 430.134C214.408 430.257 214.884 430.46 215.315 430.744C215.746 431.024 216.091 431.405 216.352 431.888C216.617 432.371 216.749 432.974 216.749 433.699V441H214.278V439.501H214.193C214.036 439.804 213.816 440.089 213.532 440.354C213.253 440.614 212.9 440.825 212.474 440.986C212.052 441.142 211.558 441.22 210.99 441.22ZM211.657 439.331C212.173 439.331 212.621 439.229 212.999 439.026C213.378 438.817 213.669 438.543 213.873 438.202C214.081 437.861 214.186 437.489 214.186 437.087V435.801C214.105 435.867 213.968 435.929 213.774 435.986C213.584 436.043 213.371 436.092 213.134 436.135C212.898 436.178 212.663 436.215 212.431 436.249C212.199 436.282 211.998 436.31 211.828 436.334C211.444 436.386 211.101 436.471 210.798 436.589C210.495 436.708 210.256 436.874 210.08 437.087C209.905 437.295 209.818 437.565 209.818 437.896C209.818 438.37 209.99 438.727 210.336 438.969C210.682 439.21 211.122 439.331 211.657 439.331ZM224.079 445.318C223.156 445.318 222.363 445.193 221.7 444.942C221.037 444.696 220.504 444.364 220.102 443.947C219.699 443.531 219.42 443.069 219.264 442.562L221.579 442.001C221.683 442.214 221.835 442.425 222.034 442.634C222.232 442.847 222.5 443.022 222.836 443.159C223.177 443.301 223.606 443.372 224.122 443.372C224.851 443.372 225.454 443.195 225.933 442.839C226.411 442.489 226.65 441.911 226.65 441.107V439.04H226.522C226.39 439.305 226.195 439.577 225.94 439.857C225.689 440.136 225.355 440.37 224.938 440.56C224.526 440.749 224.008 440.844 223.383 440.844C222.545 440.844 221.785 440.647 221.103 440.254C220.426 439.857 219.886 439.265 219.484 438.479C219.086 437.688 218.887 436.698 218.887 435.51C218.887 434.312 219.086 433.301 219.484 432.477C219.886 431.649 220.428 431.021 221.11 430.595C221.792 430.164 222.552 429.949 223.39 429.949C224.029 429.949 224.555 430.058 224.967 430.276C225.383 430.489 225.715 430.747 225.961 431.05C226.207 431.348 226.394 431.63 226.522 431.895H226.664V430.091H229.2V441.178C229.2 442.11 228.977 442.882 228.532 443.493C228.087 444.104 227.479 444.561 226.707 444.864C225.935 445.167 225.059 445.318 224.079 445.318ZM224.1 438.827C224.645 438.827 225.109 438.694 225.492 438.429C225.876 438.164 226.167 437.783 226.366 437.286C226.565 436.788 226.664 436.192 226.664 435.496C226.664 434.809 226.565 434.208 226.366 433.692C226.172 433.176 225.883 432.776 225.499 432.491C225.121 432.203 224.654 432.058 224.1 432.058C223.527 432.058 223.049 432.207 222.666 432.506C222.282 432.804 221.993 433.214 221.799 433.734C221.605 434.25 221.508 434.838 221.508 435.496C221.508 436.163 221.605 436.748 221.799 437.25C221.998 437.747 222.289 438.135 222.673 438.415C223.061 438.689 223.537 438.827 224.1 438.827ZM236.664 441.213C235.57 441.213 234.626 440.986 233.83 440.531C233.04 440.072 232.431 439.423 232.005 438.585C231.579 437.742 231.366 436.75 231.366 435.609C231.366 434.487 231.579 433.502 232.005 432.655C232.436 431.803 233.037 431.14 233.809 430.666C234.581 430.188 235.488 429.949 236.529 429.949C237.202 429.949 237.836 430.058 238.433 430.276C239.034 430.489 239.564 430.82 240.024 431.27C240.488 431.72 240.852 432.293 241.117 432.989C241.383 433.68 241.515 434.504 241.515 435.46V436.249H232.573V434.516H239.051C239.046 434.023 238.939 433.585 238.731 433.202C238.523 432.813 238.231 432.508 237.857 432.286C237.488 432.063 237.057 431.952 236.565 431.952C236.039 431.952 235.578 432.08 235.18 432.335C234.782 432.586 234.472 432.918 234.249 433.33C234.032 433.737 233.92 434.184 233.916 434.672V436.185C233.916 436.819 234.032 437.364 234.264 437.818C234.496 438.268 234.82 438.614 235.237 438.855C235.653 439.092 236.141 439.21 236.7 439.21C237.074 439.21 237.412 439.158 237.715 439.054C238.018 438.945 238.281 438.786 238.504 438.578C238.726 438.37 238.894 438.112 239.008 437.804L241.409 438.074C241.257 438.708 240.968 439.262 240.542 439.736C240.121 440.205 239.581 440.569 238.923 440.83C238.265 441.085 237.512 441.213 236.664 441.213ZM251.709 430.453C251.642 429.833 251.363 429.35 250.871 429.004C250.383 428.659 249.748 428.486 248.967 428.486C248.418 428.486 247.947 428.569 247.554 428.734C247.161 428.9 246.86 429.125 246.652 429.409C246.443 429.693 246.337 430.018 246.332 430.382C246.332 430.685 246.401 430.948 246.538 431.17C246.68 431.393 246.872 431.582 247.113 431.739C247.355 431.89 247.622 432.018 247.916 432.122C248.21 432.226 248.506 432.314 248.804 432.385L250.167 432.726C250.717 432.854 251.245 433.027 251.751 433.244C252.263 433.462 252.72 433.737 253.122 434.068C253.529 434.4 253.851 434.8 254.088 435.268C254.325 435.737 254.443 436.286 254.443 436.916C254.443 437.768 254.225 438.519 253.79 439.168C253.354 439.812 252.724 440.316 251.9 440.68C251.081 441.04 250.089 441.22 248.925 441.22C247.793 441.22 246.81 441.045 245.977 440.695C245.148 440.344 244.5 439.833 244.031 439.161C243.567 438.488 243.316 437.669 243.278 436.703H245.871C245.908 437.21 246.065 437.631 246.339 437.967C246.614 438.304 246.971 438.554 247.412 438.72C247.857 438.886 248.354 438.969 248.903 438.969C249.476 438.969 249.978 438.884 250.409 438.713C250.845 438.538 251.185 438.296 251.432 437.989C251.678 437.676 251.803 437.312 251.808 436.895C251.803 436.516 251.692 436.204 251.474 435.957C251.256 435.706 250.951 435.498 250.558 435.332C250.17 435.162 249.715 435.01 249.194 434.878L247.54 434.452C246.342 434.144 245.395 433.678 244.699 433.053C244.007 432.423 243.662 431.587 243.662 430.545C243.662 429.688 243.894 428.938 244.358 428.294C244.827 427.65 245.463 427.151 246.268 426.795C247.073 426.436 247.985 426.256 249.003 426.256C250.035 426.256 250.939 426.436 251.716 426.795C252.497 427.151 253.11 427.645 253.555 428.28C254 428.91 254.23 429.634 254.244 430.453H251.709ZM261.437 441.213C260.372 441.213 259.448 440.979 258.667 440.51C257.886 440.041 257.28 439.385 256.849 438.543C256.423 437.7 256.21 436.715 256.21 435.588C256.21 434.461 256.423 433.474 256.849 432.626C257.28 431.779 257.886 431.121 258.667 430.652C259.448 430.183 260.372 429.949 261.437 429.949C262.502 429.949 263.426 430.183 264.207 430.652C264.988 431.121 265.592 431.779 266.018 432.626C266.449 433.474 266.664 434.461 266.664 435.588C266.664 436.715 266.449 437.7 266.018 438.543C265.592 439.385 264.988 440.041 264.207 440.51C263.426 440.979 262.502 441.213 261.437 441.213ZM261.451 439.153C262.029 439.153 262.512 438.995 262.9 438.678C263.288 438.356 263.577 437.925 263.767 437.385C263.961 436.845 264.058 436.244 264.058 435.581C264.058 434.913 263.961 434.31 263.767 433.77C263.577 433.225 263.288 432.792 262.9 432.47C262.512 432.148 262.029 431.987 261.451 431.987C260.859 431.987 260.367 432.148 259.974 432.47C259.586 432.792 259.294 433.225 259.1 433.77C258.911 434.31 258.816 434.913 258.816 435.581C258.816 436.244 258.911 436.845 259.1 437.385C259.294 437.925 259.586 438.356 259.974 438.678C260.367 438.995 260.859 439.153 261.451 439.153ZM271.417 426.455V441H268.846V426.455H271.417ZM283.806 430.091L279.921 441H277.08L273.195 430.091H275.936L278.443 438.195H278.557L281.071 430.091H283.806ZM290.043 441.213C288.949 441.213 288.005 440.986 287.209 440.531C286.419 440.072 285.81 439.423 285.384 438.585C284.958 437.742 284.745 436.75 284.745 435.609C284.745 434.487 284.958 433.502 285.384 432.655C285.815 431.803 286.416 431.14 287.188 430.666C287.96 430.188 288.867 429.949 289.908 429.949C290.581 429.949 291.215 430.058 291.812 430.276C292.413 430.489 292.943 430.82 293.403 431.27C293.867 431.72 294.231 432.293 294.496 432.989C294.761 433.68 294.894 434.504 294.894 435.46V436.249H285.952V434.516H292.43C292.425 434.023 292.318 433.585 292.11 433.202C291.902 432.813 291.61 432.508 291.236 432.286C290.867 432.063 290.436 431.952 289.944 431.952C289.418 431.952 288.956 432.08 288.559 432.335C288.161 432.586 287.851 432.918 287.628 433.33C287.411 433.737 287.299 434.184 287.295 434.672V436.185C287.295 436.819 287.411 437.364 287.643 437.818C287.875 438.268 288.199 438.614 288.616 438.855C289.032 439.092 289.52 439.21 290.079 439.21C290.453 439.21 290.791 439.158 291.094 439.054C291.397 438.945 291.66 438.786 291.883 438.578C292.105 438.37 292.273 438.112 292.387 437.804L294.787 438.074C294.636 438.708 294.347 439.262 293.921 439.736C293.5 440.205 292.96 440.569 292.302 440.83C291.644 441.085 290.891 441.213 290.043 441.213ZM297.069 441V430.091H299.562V431.909H299.676C299.874 431.279 300.215 430.794 300.698 430.453C301.186 430.107 301.742 429.935 302.367 429.935C302.509 429.935 302.668 429.942 302.843 429.956C303.023 429.965 303.172 429.982 303.291 430.006V432.371C303.182 432.333 303.009 432.3 302.772 432.271C302.54 432.238 302.315 432.222 302.097 432.222C301.629 432.222 301.207 432.323 300.833 432.527C300.464 432.726 300.173 433.003 299.96 433.358C299.747 433.713 299.64 434.123 299.64 434.587V441H297.069Z" fill="#2F4FCD"/>
<path d="M199.144 458.364L196.355 466H195.41L192.621 458.364H193.581L195.848 464.832H195.917L198.184 458.364H199.144ZM203.689 466.159C202.977 466.159 202.36 465.993 201.84 465.662C201.319 465.327 200.917 464.865 200.632 464.275C200.35 463.682 200.209 462.999 200.209 462.227C200.209 461.458 200.35 460.775 200.632 460.178C200.917 459.578 201.31 459.109 201.81 458.771C202.314 458.43 202.895 458.259 203.555 458.259C203.969 458.259 204.369 458.335 204.753 458.488C205.138 458.637 205.482 458.867 205.787 459.179C206.096 459.487 206.339 459.877 206.518 460.347C206.697 460.815 206.787 461.368 206.787 462.008V462.445H200.821V461.665H205.882C205.882 461.174 205.782 460.733 205.583 460.342C205.388 459.948 205.114 459.636 204.763 459.408C204.415 459.179 204.012 459.065 203.555 459.065C203.071 459.065 202.645 459.194 202.277 459.452C201.909 459.711 201.621 460.052 201.412 460.477C201.207 460.901 201.102 461.365 201.099 461.869V462.336C201.099 462.942 201.203 463.473 201.412 463.927C201.624 464.378 201.924 464.727 202.312 464.976C202.7 465.224 203.159 465.349 203.689 465.349C204.051 465.349 204.367 465.292 204.639 465.18C204.914 465.067 205.144 464.916 205.33 464.727C205.519 464.535 205.661 464.325 205.757 464.096L206.598 464.369C206.482 464.691 206.291 464.987 206.026 465.259C205.764 465.531 205.436 465.75 205.042 465.915C204.65 466.078 204.2 466.159 203.689 466.159ZM208.737 466V458.364H209.597V459.537H209.661C209.814 459.152 210.079 458.843 210.457 458.607C210.838 458.369 211.269 458.249 211.749 458.249C211.822 458.249 211.904 458.251 211.993 458.254C212.083 458.258 212.157 458.261 212.217 458.264V459.164C212.177 459.157 212.107 459.147 212.008 459.134C211.909 459.121 211.801 459.114 211.685 459.114C211.287 459.114 210.932 459.199 210.621 459.368C210.313 459.534 210.069 459.764 209.89 460.059C209.711 460.354 209.622 460.69 209.622 461.068V466H208.737ZM213.558 466.075C213.362 466.075 213.193 466.005 213.051 465.866C212.912 465.723 212.842 465.554 212.842 465.359C212.842 465.16 212.912 464.991 213.051 464.852C213.193 464.712 213.362 464.643 213.558 464.643C213.757 464.643 213.926 464.712 214.065 464.852C214.204 464.991 214.274 465.16 214.274 465.359C214.274 465.488 214.241 465.607 214.174 465.717C214.111 465.826 214.025 465.914 213.916 465.98C213.81 466.043 213.69 466.075 213.558 466.075ZM223.656 455.818V466H222.727V456.793H222.667L220.281 458.379V457.414L222.687 455.818H223.656ZM226.888 466.075C226.692 466.075 226.523 466.005 226.381 465.866C226.242 465.723 226.172 465.554 226.172 465.359C226.172 465.16 226.242 464.991 226.381 464.852C226.523 464.712 226.692 464.643 226.888 464.643C227.087 464.643 227.256 464.712 227.395 464.852C227.534 464.991 227.604 465.16 227.604 465.359C227.604 465.488 227.571 465.607 227.504 465.717C227.441 465.826 227.355 465.914 227.246 465.98C227.14 466.043 227.021 466.075 226.888 466.075ZM232.645 466.139C231.929 466.139 231.318 465.934 230.811 465.523C230.307 465.108 229.919 464.51 229.647 463.728C229.379 462.946 229.244 462.006 229.244 460.909C229.244 459.815 229.379 458.879 229.647 458.1C229.919 457.318 230.308 456.72 230.816 456.305C231.326 455.888 231.936 455.679 232.645 455.679C233.354 455.679 233.963 455.888 234.47 456.305C234.98 456.72 235.369 457.318 235.638 458.1C235.91 458.879 236.046 459.815 236.046 460.909C236.046 462.006 235.91 462.946 235.638 463.728C235.369 464.51 234.982 465.108 234.475 465.523C233.971 465.934 233.361 466.139 232.645 466.139ZM232.645 465.304C233.431 465.304 234.044 464.921 234.485 464.156C234.925 463.387 235.146 462.304 235.146 460.909C235.146 459.981 235.045 459.189 234.843 458.533C234.644 457.873 234.357 457.369 233.982 457.021C233.611 456.673 233.165 456.499 232.645 456.499C231.866 456.499 231.255 456.887 230.811 457.663C230.366 458.435 230.144 459.517 230.144 460.909C230.144 461.837 230.244 462.629 230.443 463.286C230.645 463.942 230.932 464.442 231.303 464.787C231.677 465.132 232.125 465.304 232.645 465.304Z" fill="#313131"/>
</g>
</g>
<defs>
<filter id="filter0_d_0_108" x="0" y="0" width="430" height="884" filterUnits="userSpaceOnUse" color-interpolation-filters="sRGB">
<feFlood flood-opacity="0" result="BackgroundImageFix"/>
<feColorMatrix in="SourceAlpha" type="matrix" values="0 0 0 0 0 0 0 0 0 0 0 0 0 0 0 0 0 0 127 0" result="hardAlpha"/>
<feOffset dy="4"/>
<feGaussianBlur stdDeviation="10"/>
<feComposite in2="hardAlpha" operator="out"/>
<feColorMatrix type="matrix" values="0 0 0 0 0 0 0 0 0 0 0 0 0 0 0 0 0 0 0.16 0"/>
<feBlend mode="normal" in2="BackgroundImageFix" result="effect1_dropShadow_0_108"/>
<feBlend mode="normal" in="SourceGraphic" in2="effect1_dropShadow_0_108" result="shape"/>
</filter>
<linearGradient id="paint0_linear_0_108" x1="221.522" y1="332.175" x2="247.532" y2="375.525" gradientUnits="userSpaceOnUse">
<stop stop-color="white"/>
<stop offset="1" stop-color="white" stop-opacity="0"/>
</linearGradient>
<linearGradient id="paint1_linear_0_108" x1="220.356" y1="351.877" x2="246.366" y2="395.227" gradientUnits="userSpaceOnUse">
<stop stop-color="white"/>
<stop offset="1" stop-color="white" stop-opacity="0"/>
</linearGradient>
<linearGradient id="paint2_linear_0_108" x1="562.652" y1="29.4839" x2="562.237" y2="403.496" gradientUnits="userSpaceOnUse">
<stop stop-color="#2F4FCD"/>
<stop offset="1" stop-color="#2F4FCD" stop-opacity="0"/>
</linearGradient>
<linearGradient id="paint3_linear_0_108" x1="524.652" y1="204.484" x2="524.237" y2="578.496" gradientUnits="userSpaceOnUse">
<stop stop-color="#2F4FCD"/>
<stop offset="1" stop-color="#2F4FCD" stop-opacity="0"/>
</linearGradient>
<clipPath id="clip0_0_108">
<rect x="20" y="16" width="390" height="844" rx="20" fill="white"/>
</clipPath>
</defs>
</svg>
